<?xml version="1.0" encoding="UTF-8" standalone="no"?>
<!-- Generator: Adobe Illustrator 16.0.0, SVG Export Plug-In . SVG Version: 6.00 Build 0)  -->

<svg
   xmlns:dc="http://purl.org/dc/elements/1.1/"
   xmlns:cc="http://creativecommons.org/ns#"
   xmlns:rdf="http://www.w3.org/1999/02/22-rdf-syntax-ns#"
   xmlns:svg="http://www.w3.org/2000/svg"
   xmlns="http://www.w3.org/2000/svg"
   xmlns:sodipodi="http://sodipodi.sourceforge.net/DTD/sodipodi-0.dtd"
   xmlns:inkscape="http://www.inkscape.org/namespaces/inkscape"
   version="1.1"
   id="Layer_1"
   x="0px"
   y="0px"
   width="212.598px"
   height="168.625px"
   viewBox="-36.606 45.175 212.598 168.625"
   enable-background="new -36.606 45.175 212.598 168.625"
   xml:space="preserve"
   inkscape:version="0.91 r13725"
   sodipodi:docname="ghost-white.svg"><metadata
     id="metadata27"><rdf:RDF><cc:Work
         rdf:about=""><dc:format>image/svg+xml</dc:format><dc:type
           rdf:resource="http://purl.org/dc/dcmitype/StillImage" /></cc:Work></rdf:RDF></metadata><defs
     id="defs25" /><sodipodi:namedview
     pagecolor="#ffffff"
     bordercolor="#666666"
     borderopacity="1"
     objecttolerance="10"
     gridtolerance="10"
     guidetolerance="10"
     inkscape:pageopacity="0"
     inkscape:pageshadow="2"
     inkscape:window-width="1438"
     inkscape:window-height="2558"
     id="namedview23"
     showgrid="false"
     inkscape:zoom="1.3995552"
     inkscape:cx="106.299"
     inkscape:cy="84.3125"
     inkscape:window-x="0"
     inkscape:window-y="0"
     inkscape:window-maximized="0"
     inkscape:current-layer="Layer_1" /><g
     id="g3"
     style="fill:#000000"><path
       d="M106.631,141.569c-1.17,0-2.552-0.078-3.789-0.212c-0.686-0.086-15.436-1.948-20.496-2.809   c-7.902-1.344-20.543-1.567-20.709-1.571c0,0-3.3-0.188-4.397-0.285c-19.395-1.701-35.093-16.391-39.171-35.44   c-2.526-11.796-0.308-23.87,6.248-33.996c6.554-10.128,16.662-17.095,28.457-19.622c3.131-0.669,6.327-1.01,9.496-1.01   c19.997,0,37.821,13.424,43.351,32.644c0.048,0.179,3.324,12.355,5.835,18.949c1.325,3.487,3.233,7.819,5.077,12.007   c1.721,3.912,3.348,7.604,4.41,10.407c2.584,6.795,1.097,11.46-0.604,14.179c-2.372,3.786-6.719,6.224-11.929,6.688   C107.885,141.543,107.285,141.569,106.631,141.569z M57.843,130.047c8.073,0.631,17.569,0.557,25.618,1.926   c4.922,0.836,20.002,2.74,20.155,2.76c1.398,0.15,3.206,0.209,4.2,0.121c3.112-0.277,5.615-1.584,6.867-3.584   c1.627-2.602,0.912-5.933,0.023-8.27c-1.003-2.639-2.596-6.259-4.282-10.089c-1.878-4.267-3.819-8.676-5.205-12.322   c-2.63-6.911-5.89-19.024-6.027-19.536c-4.694-16.32-19.886-27.759-36.924-27.759c-2.702,0-5.428,0.291-8.1,0.862   C44.116,56.31,35.501,62.248,29.914,70.88c-5.587,8.63-7.478,18.922-5.326,28.975C28.054,116.049,41.355,128.76,57.843,130.047z"
       id="path5"
       style="fill:#000000"
       fill="#FFFFFF" /><g
       id="g7"
       style="fill:#000000"><path
         d="M44.529,93.324c0.16,0,0.33,0,0.518-0.02c0.349-0.032,0.749-0.106,1.181-0.227    c1.378-0.383,1.835-0.92,2.589-1.903c0.663-0.856,1.183-1.804,1.923-3.62c0.692-1.678,1.382-5.359,2.089-7.643    c0.708-2.297,2.199-3.111,2.881-3.378c0.71-0.275,1.528-0.231,2.57,0.133c1.185,0.408,2.307,1.702,3.525,3.688    c1.217,1.985,1.791,4.478,1.923,6.351c0.126,1.874-0.188,4.396-1.354,6.545c-1.275,2.335-3.874,5.172-8.559,5.992    c-4.682,0.818-6.96-0.69-8.293-2.025c-0.604-0.599-0.936-1.06-1.292-1.689c-0.184-0.333-0.287-0.6-0.36-0.816    C43.755,94.362,43.247,93.335,44.529,93.324"
         id="path9"
         style="fill:#000000"
         fill="#FFFFFF" /><path
         d="M39.899,94.469c-0.191-0.279-0.414-0.336-0.765-0.253c0,0-1.028,0.28-2.179-0.679    c-1.154-0.957-2.164-2.39-3.249-4.413c-1.081-2.029-1.707-3.33-2.221-3.721c-0.505-0.385-1.01-0.417-1.552,0.074    c-0.535,0.499-1.357,2.338-1.497,3.97c-0.143,1.627-0.041,3.726,0.236,5.556c0.272,1.822,0.896,3.487,1.343,4.303    c0.609,1.1,1.729,2.37,2.529,2.92c0.791,0.555,2.015,1.055,3.076,0.964c1.064-0.082,2.117-0.673,2.882-1.699    c0.764-1.029,1.21-2.444,1.406-3.32c0.257-1.153,0.268-1.892,0.252-2.455C40.148,95.138,40.087,94.744,39.899,94.469"
         id="path11"
         style="fill:#000000"
         fill="#FFFFFF" /></g><polygon
       points="35.784,194.31 18.094,194.31 18.094,180.698 14.642,180.698 14.642,211.34 18.094,211.34    18.094,197.549 35.784,197.549 35.784,211.34 39.244,211.34 39.244,180.698 35.784,180.698  "
       id="polygon13"
       style="fill:#000000"
       fill="#FFFFFF" /><path
       d="M-18.944,198.078h9.322v7.618c-2.097,1.707-5.336,3.064-8.84,3.064c-7.441,0-12.132-5.432-12.132-12.744   v-0.086c0-6.83,4.863-12.561,11.651-12.561c4.333,0,6.96,1.445,9.322,3.5l2.236-2.626c-3.065-2.583-6.265-4.071-11.429-4.071   c-9.191,0-15.366,7.441-15.366,15.844v0.094c0,8.75,5.958,15.756,15.584,15.756c5.166,0,9.456-2.145,12.305-4.684v-12.213h-12.652   V198.078z"
       id="path15"
       style="fill:#000000"
       fill="#FFFFFF" /><path
       d="M75.366,180.172c-9.327,0-15.671,7.398-15.671,15.844v0.094c0,8.443,6.257,15.756,15.583,15.756   c9.323,0,15.673-7.398,15.673-15.85v-0.086C90.951,187.481,84.689,180.172,75.366,180.172z M87.363,196.11   c0,6.957-4.992,12.562-11.997,12.562c-7.004,0-12.083-5.691-12.083-12.656v-0.086c0-6.963,4.988-12.561,11.996-12.561   c7.005,0,12.085,5.691,12.085,12.646V196.11z"
       id="path17"
       style="fill:#000000"
       fill="#FFFFFF" /><path
       d="M122.17,194.356c-6.742-1.443-8.314-3.062-8.314-5.954v-0.086c0-2.757,2.535-4.946,6.52-4.946   c3.154,0,5.998,1.006,8.844,3.326l2.014-2.67c-3.105-2.498-6.305-3.768-10.77-3.768c-5.821,0-10.069,3.545-10.069,8.363v0.086   c0,5.035,3.239,7.309,10.292,8.842c6.43,1.361,7.963,2.98,7.963,5.823v0.089c0,3.021-2.72,5.211-6.826,5.211   c-4.246,0-7.312-1.445-10.512-4.339l-2.145,2.544c3.678,3.283,7.663,4.9,12.518,4.9c6.088,0,10.469-3.412,10.469-8.665v-0.09   C132.152,198.336,128.996,195.844,122.17,194.356z"
       id="path19"
       style="fill:#000000"
       fill="#FFFFFF" /><polygon
       points="149.495,180.698 149.495,183.895 159.781,183.895 159.781,211.34 163.285,211.34 163.285,183.895    173.566,183.895 173.566,180.698  "
       id="polygon21"
       style="fill:#000000"
       fill="#FFFFFF" /></g></svg>