<?xml version="1.0" encoding="utf-8"?>
<!-- Generator: Adobe Illustrator 16.0.0, SVG Export Plug-In . SVG Version: 6.00 Build 0)  -->
<!DOCTYPE svg PUBLIC "-//W3C//DTD SVG 1.1//EN" "http://www.w3.org/Graphics/SVG/1.1/DTD/svg11.dtd">
<svg version="1.1" id="Uprise" xmlns="http://www.w3.org/2000/svg" xmlns:xlink="http://www.w3.org/1999/xlink" x="0px" y="0px"
	 width="585.007px" height="117.626px" viewBox="0 0 585.007 117.626" enable-background="new 0 0 585.007 117.626"
	 xml:space="preserve">

<g id="Logo">
	<g id="E">
		<polygon points="554.522,52.802 560.672,42.148 508.697,42.148 508.697,23.672 571.34,23.672 585.007,0 485.026,0 485.026,52.802 
					"/>
		<polygon points="508.697,65.821 547.005,65.821 553.156,55.169 485.026,55.169 485.026,117.625 579.11,117.625 579.11,93.952 
			508.697,93.952 		"/>
	</g>
	<g id="S">
		<path d="M468.022,84.61v-8.207c0-2.525-1.357-4.877-3.544-6.14L397.61,31.658v-7.986h70.412V0h-94.084v30.291L468.022,84.61z"/>
		<path d="M373.938,33.024v8.208c0,2.525,1.358,4.877,3.544,6.139l66.868,38.606v7.974h-70.412v23.672h94.084V87.344L373.938,33.024
			z"/>
	</g>
	<rect id="I" x="333.263" width="23.671" height="117.626"/>
	<g id="R">
		<polygon points="222.175,72.311 222.175,84.61 316.259,30.291 316.259,0 222.175,0 222.175,23.672 292.587,23.672 292.587,31.658 
					"/>
		<path d="M319.543,117.625l-47.038-47.038l40.209-23.214c2.187-1.263,3.545-3.616,3.545-6.142v-8.207l-94.084,54.32v12.302
			l29.107-16.806l34.784,34.785H319.543z"/>
	</g>
	<g id="P">
		<path d="M114.627,70.268c-2.183,1.261-3.54,3.609-3.54,6.13v8.213l94.085-54.32V0h-94.085v23.672H181.5v7.986L114.627,70.268z"/>
		<path d="M111.087,87.344v30.28l23.672-13.667V85.978l66.872-38.608c2.184-1.261,3.541-3.611,3.541-6.133v-8.213L111.087,87.344z"
			/>
	</g>
	<g id="U">
		<polygon points="94.085,102.591 94.085,0.001 70.413,0.001 70.413,76.623 23.672,49.638 23.672,0.001 0,0.001 0,48.271 		"/>
		<path d="M0,51.005v8.211c0,2.522,1.357,4.872,3.541,6.133l90.544,52.275v-12.3L0,51.005z"/>
	</g>
</g>
</svg>
